<svg width="52" height="52" viewBox="0 0 52 52" fill="none" xmlns="http://www.w3.org/2000/svg">
<path d="M37.375 26.0001H15.7083M15.7083 26.0001L21.6667 31.9584M15.7083 26.0001L21.6667 20.0417" stroke="white" stroke-width="2" stroke-linecap="round" stroke-linejoin="round"/>
<path d="M47.6667 32.4999V19.4999C47.6667 17.2014 46.7536 14.997 45.1283 13.3717C43.503 11.7463 41.2986 10.8333 39 10.8333H13C10.7015 10.8333 8.49708 11.7463 6.87177 13.3717C5.24645 14.997 4.33336 17.2014 4.33336 19.4999V32.4999C4.33336 34.7985 5.24645 37.0029 6.87177 38.6282C8.49708 40.2535 10.7015 41.1666 13 41.1666H39C41.2986 41.1666 43.503 40.2535 45.1283 38.6282C46.7536 37.0029 47.6667 34.7985 47.6667 32.4999Z" stroke="white" stroke-width="2"/>
</svg>
