<svg aria-hidden="true" xmlns="http://www.w3.org/2000/svg" xmlns:xlink="http://www.w3.org/1999/xlink"><symbol viewBox="0 0 117 122" id="layer-01" xmlns="http://www.w3.org/2000/svg">
<path d="M112.539 110.084C111.584 106.355 110.648 102.623 108.476 99.3687C107.995 98.649 108.017 98.3783 108.778 97.8465C114.112 94.1367 116.523 89.0035 115.953 82.5106C115.915 81.7499 115.647 81.0186 115.186 80.4127C114.724 79.8068 114.09 79.3548 113.367 79.116C112.665 78.8243 111.893 78.746 111.147 78.891C110.401 79.036 109.715 79.3979 109.173 79.9312C107.874 81.1031 106.591 82.2845 105.276 83.4341C103.744 84.7747 101.715 84.8065 100.308 83.5455C98.8464 82.2399 98.6171 80.3165 99.7444 78.6065C100.614 77.2818 101.493 75.9571 102.419 74.6738C103.518 73.1485 103.808 71.5754 102.833 69.8973C101.859 68.2191 100.286 67.7892 98.4451 67.9325C94.1237 68.2748 90.1144 70.3167 87.2963 73.6106C84.4781 76.9045 83.0812 81.1816 83.4117 85.5039C83.4754 86.2777 83.2365 86.3573 82.5965 86.2809C81.0616 86.093 79.5236 85.9115 77.9791 85.8C74.8266 85.5771 72.7695 83.4945 72.7058 80.3452C72.6676 78.4346 72.7249 76.5239 72.6835 74.6292C72.6624 74.3184 72.7165 74.0071 72.8413 73.7217C72.966 73.4362 73.1576 73.185 73.4 72.9893C76.2152 70.5356 78.7563 67.7842 80.9788 64.7831C83.8002 60.8823 85.4369 56.6407 85.23 51.7272C85.0676 48.0014 85.23 44.263 85.1726 40.5309C85.1567 39.5564 85.4561 39.2985 86.37 39.3717C87.3246 39.4231 88.2813 39.4231 89.2359 39.3717C90.8727 39.324 91.8694 38.3973 91.8853 36.9421C91.9012 35.4868 90.8631 34.4965 89.1754 34.4455C88.9782 34.4312 88.7803 34.4312 88.5831 34.4455C88.0099 34.5124 87.717 34.3532 87.7074 33.694C87.6903 32.8995 87.6125 32.1075 87.4749 31.3248C85.7235 20.8185 80.0978 13.1441 70.5977 8.30176C70.3846 8.2213 70.202 8.07601 70.0758 7.88636C69.9496 7.6967 69.886 7.47223 69.894 7.24454C69.6329 3.04116 66.4644 0.0382938 62.2515 0.0032656C59.1563 -0.0222094 56.0579 0.0032656 52.9595 0.0032656C48.5013 0.0032656 45.4475 2.71637 44.9985 7.15858C44.9924 7.42307 44.9073 7.67967 44.754 7.89534C44.6008 8.111 44.3865 8.27586 44.1387 8.36864C34.006 13.7216 28.2582 22.0392 27.2424 33.5252C27.1819 34.229 27.0099 34.5602 26.2871 34.4615C26.0096 34.4344 25.7302 34.4344 25.4528 34.4615C23.9593 34.5602 22.953 35.5855 22.9849 36.9707C23.0167 38.3018 24.0102 39.2985 25.4432 39.3654C26.4346 39.4307 27.4292 39.4307 28.4206 39.3654C29.3759 39.2794 29.6944 39.5373 29.6784 40.5659C29.6116 44.4572 29.7294 48.3517 29.6307 52.2398C29.5224 56.319 30.742 59.9556 32.9201 63.3342C35.2829 67.0058 38.2858 70.1042 41.4957 73.0243C41.8619 73.3427 42.279 73.6262 42.2663 74.2662C42.2185 76.4093 42.3141 78.5556 42.2185 80.6955C42.1665 81.9584 41.6672 83.1618 40.8097 84.0905C39.9521 85.0192 38.7923 85.6127 37.5375 85.765C33.7513 86.1758 29.965 86.5897 26.1724 86.94C15.5557 87.9272 6.33055 95.6175 3.44551 105.986C2.35008 109.912 1.42979 113.889 0.261125 117.797C-0.277035 119.599 -0.0573131 120.949 1.53488 122H2.95512C4.22887 121.519 4.74473 120.523 5.07909 119.274C6.31782 114.647 7.18079 109.903 8.92583 105.438C11.623 98.5471 16.718 94.2386 23.8924 92.3535C24.714 92.1401 25.0101 92.2006 24.9879 93.1496C24.9273 95.5315 24.9496 97.9262 24.9879 100.295C24.9879 100.932 24.8668 101.251 24.2013 101.505C20.501 102.83 18.014 105.4 16.683 109.084C15.6321 111.985 14.6131 114.899 13.575 117.806C12.798 119.978 13.0337 120.742 14.8902 122H16.0811C17.2498 121.589 17.8453 120.726 18.2306 119.57C19.2305 116.612 20.2877 113.676 21.3513 110.74C22.4658 107.661 24.956 105.776 28.1754 105.766C41.4989 105.728 54.8255 105.747 68.1489 105.747C68.3062 105.766 68.4617 105.798 68.6139 105.843C67.6872 107.04 66.7892 108.161 66.2988 109.549C65.8747 110.725 65.6923 111.974 65.7626 113.221C65.8328 114.469 66.1543 115.69 66.7076 116.81C67.261 117.93 68.0349 118.928 68.983 119.742C69.9311 120.556 71.0338 121.17 72.225 121.548C72.5752 121.659 73.0242 121.586 73.2535 121.997H76.1195C79.6414 121.417 81.8991 119.08 84.0326 116.472C86.2617 113.743 88.6563 111.148 90.93 108.451C91.4777 107.814 91.7866 107.855 92.242 108.482C92.7802 109.217 93.2092 110.026 93.5157 110.883C94.5347 113.749 95.5983 116.615 96.5664 119.481C96.9357 120.583 97.4675 121.471 98.5216 121.997H99.7125C101.639 121.073 102.053 120.058 101.324 118.007C100.308 115.141 99.2731 112.275 98.2668 109.409C97.6824 107.594 96.69 105.937 95.3659 104.566C94.8818 104.088 94.9869 103.84 95.3404 103.324C96.6969 101.349 98.3178 100.477 100.891 100.407C102.948 100.353 103.715 101.098 104.578 102.569C106.368 105.629 107.024 109.059 107.957 112.399C108.571 114.606 109.183 116.819 109.699 119.051C109.985 120.303 110.508 121.325 111.625 121.994H113.055C114.848 120.959 115.176 120.163 114.647 118.118C113.931 115.443 113.221 112.762 112.539 110.084ZM32.2323 33.4393C33.0411 25.3605 36.8401 19.0777 43.5114 14.4986C43.9699 14.1801 44.4444 13.8999 44.9221 13.6165C45.2405 13.4382 45.5589 13.298 45.9984 13.0529L48.7083 25.2268C48.7784 25.5452 48.8452 25.8636 48.9312 26.1502C49.342 27.58 50.5775 28.3793 51.8863 28.0863C52.2098 28.0221 52.5167 27.8922 52.788 27.7047C53.0593 27.5171 53.2892 27.2759 53.4635 26.9959C53.6378 26.7159 53.7529 26.4032 53.8014 26.0769C53.85 25.7507 53.8312 25.418 53.746 25.0994C52.9467 21.2622 52.0678 17.4409 51.2208 13.6133C50.8291 11.8364 50.4151 10.0627 50.0394 8.27947C49.6541 6.43571 50.7495 5.02185 52.6283 5.00275C55.8403 4.96878 59.0544 4.96878 62.2706 5.00275C64.0602 5.02504 65.1747 6.48349 64.7926 8.23171C63.608 13.6897 62.4149 19.1446 61.2134 24.5962C60.8344 26.3222 61.3694 27.5354 62.726 28.0194C64.2545 28.5608 65.6588 27.6246 66.0759 25.7649C66.9484 21.8609 67.8528 17.9664 68.6553 14.0464C68.8559 13.0656 69.117 13.1325 69.8335 13.556C77.5047 18.1001 81.759 24.8096 82.7239 33.6558C82.8544 34.834 82.087 34.4965 81.5456 34.4965C66.4602 34.4965 51.3768 34.4965 36.2956 34.4965C35.2639 34.4965 34.2289 34.4392 33.2004 34.5156C32.3119 34.5825 32.1527 34.2481 32.2323 33.4329V33.4393ZM38.8526 63.0954C36.942 60.6848 35.3244 58.1214 34.7798 55.0166C34.5728 53.8288 34.662 52.6411 34.6588 51.4533C34.6588 47.8008 34.6843 44.1515 34.6301 40.499C34.6301 39.6074 34.8403 39.3813 35.7383 39.3877C42.9605 39.4259 50.1827 39.41 57.3921 39.41C64.6016 39.41 71.8396 39.41 79.0459 39.3909C79.8961 39.3909 80.1987 39.5406 80.1859 40.4768C80.1286 44.6451 80.1127 48.8103 80.1859 52.9786C80.2432 56.9687 78.3294 60.1148 76.0016 63.0763C72.5912 67.4134 68.305 70.8366 64.1748 74.435C62.5826 75.8361 60.9045 76.5717 58.7869 76.3456C58.0762 76.2597 57.3577 76.2597 56.647 76.3456C54.0549 76.6832 52.0392 75.7533 50.0967 74.0242C46.2054 70.5182 42.123 67.2256 38.8526 63.089V63.0954ZM47.2212 78.2658C47.3868 78.2658 47.4887 78.2339 47.5396 78.2658C49.9725 80.7146 52.9244 81.5967 56.3253 81.3101C57.7424 81.1922 59.1913 81.2814 60.6083 81.2909C62.6099 81.3126 64.5527 80.6142 66.0823 79.323L67.6745 78.0269C68.0216 84.6027 68.6871 86.1822 72.209 89.029C66.0982 94.9424 50.5935 94.9902 42.6803 89.0545C46.4219 86.4019 47.5842 82.6316 47.218 78.2594L47.2212 78.2658ZM31.2579 100.808C30.2484 100.808 29.8886 100.63 29.9364 99.5343C30.0319 97.1587 29.9873 94.7736 29.9364 92.3949C29.9364 91.758 30.102 91.4173 30.7866 91.4873C30.8256 91.4936 30.8654 91.4936 30.9044 91.4873C34.264 90.6371 37.1012 91.3727 40.0691 93.3693C45.555 97.1128 52.1157 98.9571 58.7487 98.6204C65.6014 98.3019 71.655 95.7067 77.2531 91.9013C78.8931 90.7868 79.0077 90.7677 81.3132 91.2899C78.9536 94.0189 76.6162 96.6047 74.4286 99.3114C73.5146 100.435 72.5721 100.824 71.1264 100.818C57.839 100.752 44.5495 100.746 31.2579 100.802V100.808ZM97.8115 95.4965C97.2348 95.3656 96.6327 95.4035 96.0771 95.6057C95.5214 95.8078 95.0357 96.1657 94.678 96.6365C89.2582 102.916 83.8288 109.185 78.3899 115.443C77.2213 116.794 75.7723 117.418 74.04 116.896C73.2076 116.676 72.4564 116.221 71.8772 115.584C71.298 114.947 70.9155 114.156 70.7761 113.307C70.5022 111.899 71.0945 110.759 71.9861 109.731C76.8689 104.094 81.7516 98.4537 86.6343 92.8089C86.7394 92.691 86.8317 92.5605 86.9527 92.4522C88.736 90.8377 89.2678 89.1373 88.6309 86.5707C87.1438 80.5554 91.223 74.4222 97.0058 73.3013C97.044 73.3396 97.0822 73.3809 97.1236 73.416C96.7893 74.3713 96.1014 75.0941 95.5696 75.9189C93.14 79.6765 93.6972 84.3129 96.958 87.2617C100.158 90.1563 104.973 90.2104 108.387 87.3699C109.202 86.6917 109.979 85.9561 110.915 85.1059C110.996 85.681 110.956 86.2667 110.797 86.8254C109.352 92.7897 103.9 96.4773 97.7955 95.4901L97.8115 95.4965Z"/>
</symbol><symbol viewBox="0 0 123 122" id="layer-02" xmlns="http://www.w3.org/2000/svg">
<path d="M120.824 73.567C119.325 71.0166 116.865 69.6054 114.482 68.1165C111.66 66.3531 108.541 65.1168 105.738 63.3097C103.392 61.7989 101.412 59.9723 100.227 57.3807C99.8672 56.5986 99.8988 56.0715 100.569 55.4205C103.309 52.7682 105.986 50.0478 108.677 47.3444C110.834 45.1754 110.839 42.9554 108.677 40.7863C104.635 36.7373 100.576 32.7053 96.5493 28.6418C95.5462 27.6289 94.4337 26.9537 92.9813 27.0703C92.3303 27.1237 92.187 26.6452 91.932 26.2784C86.4183 18.4152 80.9128 10.5463 75.4153 2.6718C74.5822 1.47192 73.6568 0.485783 72.2578 0H70.3486C69.773 0.439633 69.0613 0.650948 68.5294 1.18531C60.8378 8.89306 53.1462 16.5976 45.4547 24.2989C44.1212 25.6396 43.9075 27.4224 44.7867 29.1275C45.496 30.5023 46.2757 31.8382 47.0116 33.1984C47.1622 33.4729 47.4318 33.7182 47.3808 34.2866C45.6514 33.315 44.0823 32.4284 42.4841 31.5807C40.7353 30.6553 39.0035 30.8181 37.6409 32.1272C35.5795 34.1092 33.5603 36.1333 31.5832 38.1995C31.4014 38.4204 31.1755 38.6008 30.9199 38.7292C30.6643 38.8576 30.3848 38.9312 30.0991 38.9452C23.4001 39.3994 16.7206 40.0261 10.199 41.7336C7.20416 42.5157 4.23359 43.3974 1.78768 45.445C0.709239 46.351 0 47.4537 0 48.9183C0 51.5416 0 54.1648 0 56.788C0 58.0025 0.39104 59.0979 1.28974 59.8849C1.9504 60.4605 2.04513 61.0848 2.04513 61.8717C2.03055 78.007 2.09613 94.1423 1.97954 110.278C1.95525 113.384 3.23773 115.284 5.79052 116.663C8.68579 118.23 11.8215 119.063 15.0058 119.724C22.618 121.302 30.3396 121.863 38.0927 121.978C47.6019 122.119 57.0722 121.621 66.4186 119.707C69.9989 118.978 73.5281 118.053 76.6322 115.995C78.4515 114.781 79.3575 113.185 79.3453 110.909C79.2846 99.8624 79.3186 88.806 79.3162 77.7641C79.3162 77.1642 79.3308 76.6371 79.8335 76.1489C81.9734 74.0722 84.0744 71.959 86.1487 69.8337C86.5859 69.3868 86.943 69.3479 87.5041 69.5908C89.4615 70.3939 91.1729 71.6983 92.4663 73.3727C93.8387 75.0729 94.8952 76.9917 95.8911 78.9349C97.3484 81.7961 98.8228 84.6452 100.766 87.2272C104.798 92.5708 111.558 93.1294 116.411 88.4975C118.854 86.1657 121.225 83.8048 122.106 80.3849V76.8023C121.596 75.7627 121.434 74.592 120.824 73.567ZM39.9411 35.5204C40.4123 35.0347 40.7232 35.2581 41.1555 35.4986C44.6839 37.4709 48.2188 39.4342 51.7602 41.3887C53.2345 42.1951 54.7234 41.5636 55.0003 40.0674C55.1266 39.3873 54.8133 38.8335 54.5145 38.2773C52.6078 34.8452 50.7206 31.4034 48.7799 27.9932C48.418 27.3593 48.452 27.0047 48.979 26.4922C51.3691 24.1628 53.713 21.7849 56.0739 19.424C57.1912 18.3067 57.1863 18.3116 58.1628 19.4847C61.9227 24.0041 65.6843 28.5236 69.4475 33.043C69.6515 33.2858 69.8507 33.5287 70.0669 33.7716C70.9656 34.7432 72.1096 34.8962 73.0156 34.1432C73.9216 33.3903 74.0236 32.2001 73.1808 31.1751C71.07 28.5908 68.918 26.0404 66.7806 23.4755C64.7208 21.0053 62.6733 18.5205 60.5844 16.0721C60.1642 15.5863 60.1569 15.3143 60.633 14.8431C64.0335 11.4944 67.4056 8.12067 70.7494 4.72181C71.3809 4.08057 71.6117 4.31618 72.01 4.88698C77.5528 12.8295 83.1077 20.764 88.6748 28.6903C89.0999 29.2927 89.0464 29.6182 88.5266 30.1477C79.2061 39.431 69.9009 48.7313 60.6111 58.0486C60.2371 58.4227 59.9893 58.7336 59.3651 58.2915C51.1578 52.5058 42.9262 46.7566 34.5586 40.9005C36.4021 39.0618 38.202 37.313 39.9459 35.5204H39.9411ZM47.2934 54.7842C36.4993 55.1315 26.1375 54.7696 15.8754 52.8629C24.0577 51.4558 32.348 50.7722 40.6503 50.8202C41.3192 50.8019 41.9748 51.0099 42.5108 51.4104C43.9973 52.4961 45.5203 53.5381 47.2982 54.7842H47.2934ZM4.60278 48.2722C5.36225 47.6991 6.20958 47.2529 7.11184 46.9509C11.5543 45.275 16.2033 44.522 20.8789 43.8905C23.9467 43.4776 27.0314 43.259 30.1088 43.0185C30.3733 42.975 30.6445 43.0019 30.8952 43.0966C31.1459 43.1912 31.3673 43.3503 31.537 43.5577C32.6859 44.8159 34.2914 45.5203 35.7828 46.81C33.3951 46.9412 31.2625 47.0529 29.13 47.1768C21.9185 47.6334 14.7629 48.4374 7.81137 50.5506C7.00254 50.7935 4.68292 49.7296 4.25786 49.0058C3.99797 48.5589 4.40118 48.4326 4.60278 48.2722ZM4.117 53.8733C12.7664 57.3151 21.7582 58.1531 30.8035 58.6971C37.7875 59.087 44.7884 59.0651 51.7699 58.6316C52.3978 58.5658 53.0275 58.7393 53.5332 59.1173C54.8473 60.0889 56.2051 61.0095 57.8154 62.1365C53.5988 62.581 49.7369 62.8652 45.8627 62.9502C36.713 63.1761 27.5876 62.887 18.5229 61.522C14.6002 60.9317 10.6702 60.2905 7.00984 58.6874C3.34947 57.0843 4.09028 57.4511 4.117 53.8782V53.8733ZM75.2429 111.47C75.2429 112.296 74.6187 112.634 74.0284 112.959C71.4732 114.39 68.6581 115.084 65.826 115.675C56.1273 117.698 46.3024 118.104 36.4361 117.875C28.7219 117.698 21.0587 117.049 13.5363 115.203C11.4862 114.743 9.49537 114.051 7.60248 113.139C6.54105 112.602 6.0747 111.888 6.08684 110.618C6.15 102.908 6.11842 95.1989 6.11842 87.4895C6.11842 79.7024 6.13301 71.9129 6.099 64.1258C6.099 63.0983 6.1573 62.7559 7.34747 63.1542C12.6012 64.9346 18.0638 65.7118 23.5532 66.2729C32.7703 67.1803 42.0457 67.3427 51.2889 66.7587C53.6272 66.6195 55.9622 66.4235 58.2939 66.1709C58.5788 66.1182 58.8725 66.1399 59.1465 66.234C59.4205 66.328 59.6657 66.4912 59.8582 66.7077C63.6351 70.5187 67.4461 74.2956 71.2206 78.1042C72.1922 79.0757 73.2245 79.8044 74.6527 79.7073C75.1797 79.6708 75.2405 79.9283 75.2405 80.3388C75.2372 90.7216 75.2372 101.099 75.2405 111.47H75.2429ZM75.1627 75.119C74.677 75.6048 74.4341 75.6048 73.9702 75.119C70.0839 71.1939 66.1806 67.2898 62.2603 63.4068C61.743 62.8943 61.7211 62.6393 62.2603 62.1098C72.3808 52.0152 82.4867 41.9036 92.5781 31.7751C93.1537 31.197 93.433 31.2674 93.9601 31.7993C97.814 35.6969 101.688 39.5751 105.582 43.4338C105.808 43.613 106.053 43.7677 106.311 43.8953C105.969 44.2621 105.825 44.4394 105.648 44.6046C95.4822 54.7753 85.3196 64.9467 75.1603 75.119H75.1627ZM116.177 82.9644C115.247 83.936 114.285 84.893 113.306 85.8233C112.104 86.9673 110.654 87.5235 108.791 87.5478C107.928 87.5256 107.081 87.3054 106.316 86.904C105.551 86.5027 104.889 85.931 104.38 85.233C102.87 83.2419 101.555 81.11 100.453 78.8669C99.2381 76.4161 97.9775 73.9872 96.3745 71.7574C94.8248 69.6054 92.9958 67.7449 90.6106 66.5231C90.001 66.2098 89.9888 66.0106 90.46 65.5515C92.3619 63.6861 94.237 61.7964 96.1097 59.9043C96.4619 59.5473 96.6635 59.4331 96.955 59.9942C98.8981 63.7129 102.129 66.0252 105.675 68.0096C108.922 69.8264 112.362 71.2984 115.352 73.5742C118.604 76.0469 119.005 79.9914 116.175 82.9644H116.177Z"/>
</symbol><symbol viewBox="0 0 123 122" id="layer-03" xmlns="http://www.w3.org/2000/svg">
<path d="M111.205 63.3508C110.542 63.2043 110.138 63.1055 110.166 62.1977C110.485 53.0939 108.255 44.6048 103.767 36.7147C103.56 36.4187 103.446 36.0685 103.437 35.7078C103.427 35.347 103.525 34.9916 103.716 34.6856C111.087 20.3514 102.426 3.05797 86.5403 0.283503C86.1517 0.213425 85.658 0.480992 85.3618 0H79.8797C78.0322 0.637076 76.0573 0.840944 74.2384 1.57677C69.5004 3.41265 65.4795 6.7254 62.771 11.0246C62.3856 11.6266 62.0161 11.8846 61.2771 11.8783C54.2329 11.7972 47.2577 13.2721 40.8493 16.1976C40.1358 16.5162 39.7599 16.3665 39.2375 15.8504C37.2938 13.8948 34.8052 12.5712 32.0971 12.0529C29.389 11.5346 26.5876 11.8456 24.0591 12.9454C21.5136 14.0571 19.362 15.9098 17.8847 18.2621C16.4074 20.6144 15.673 23.3571 15.7771 26.1328C15.8649 29.0121 16.8843 31.7852 18.6822 34.0358C19.1982 34.6729 19.2301 35.1506 18.7937 35.8769C14.7173 42.6264 12.3703 50.2779 11.9611 58.1523C11.9197 58.8658 11.7572 59.1079 11.0055 59.0824C9.89695 59.0219 8.7757 59.0378 7.67038 59.0824C6.74921 59.1096 5.8694 59.4711 5.19529 60.0995C4.52118 60.7278 4.09887 61.5801 4.00719 62.4971C3.95776 63.0105 3.9386 63.5264 3.94984 64.042C3.94984 76.3949 3.94984 88.7489 3.94984 101.104C3.94984 101.916 3.87021 102.378 2.88593 102.528C1.43021 102.741 0.735822 103.987 0 105.108V111.307C1.05755 113.571 2.86684 114.342 5.29729 114.196C7.59394 114.059 9.90332 114.196 12.2064 114.154C12.4916 114.12 12.7803 114.177 13.0306 114.318C13.2809 114.459 13.4798 114.676 13.5984 114.938C16.2709 119.515 20.2877 121.997 25.5977 121.997C30.9077 121.997 34.9181 119.493 37.5938 114.922C37.714 114.665 37.9123 114.452 38.1606 114.314C38.4088 114.176 38.6944 114.12 38.9763 114.154C45.81 114.173 52.6415 114.173 59.471 114.154C59.754 114.129 60.0379 114.193 60.2829 114.337C60.5279 114.481 60.7218 114.698 60.8375 114.957C63.5324 119.512 67.5268 122.01 72.8528 122C78.1118 122 82.0904 119.531 84.782 115.014C85.1547 114.377 85.5019 114.116 86.2377 114.151C87.6266 114.215 89.0186 114.189 90.4074 114.151C92.7646 114.11 94.3764 112.559 94.456 110.214C94.577 106.595 94.5675 102.983 93.338 99.5112C93.0194 98.6257 93.2551 98.0969 93.9495 97.4885C96.29 95.4545 98.393 93.1624 100.218 90.6559C100.782 89.8723 101.037 90.0379 101.518 90.6973C103.487 93.3857 105.5 96.0423 107.5 98.7085C107.733 99.027 107.988 99.3137 108.296 99.6928C112.189 94.472 116.234 89.4709 119.812 84.1481C125.195 76.1879 120.608 65.4277 111.205 63.3508ZM80.2365 4.08685C90.847 2.88914 100.374 9.96067 102.075 20.3577C103.002 26.0245 101.887 31.29 98.3708 35.8706C93.3475 42.4197 88.1936 48.8701 83.1002 55.3651C82.9731 55.5595 82.8602 55.7628 82.7625 55.9735C77.3219 49.023 72.0054 42.3082 66.7814 35.5169C64.3446 32.3507 63.2361 28.6557 63.0259 24.6867C62.4812 14.4552 70.193 5.22084 80.2365 4.08685ZM23.0239 18.2554C24.7704 16.6938 27.0183 15.809 29.3607 15.7611C31.703 15.7131 33.9852 16.5053 35.7941 17.9942C39.5815 21.1414 40.6422 26.5693 37.9187 30.6497C35.3704 34.4722 32.4654 38.0557 29.71 41.7412C29.6718 41.7953 29.573 41.8081 29.4488 41.8686C26.754 38.2564 23.9636 34.7015 21.3803 31.0033C18.5803 26.9929 19.3734 21.5077 23.0239 18.2554ZM11.9356 107.029C11.8793 107.421 11.8548 107.817 11.8623 108.214C11.8623 110.227 11.8623 110.227 9.80456 110.227H8.02395C6.95685 110.227 5.88658 110.185 4.81948 110.227C4.12825 110.262 3.97533 110.001 3.9594 109.348C3.88614 106.29 3.86703 106.29 6.86766 106.29C8.32974 106.29 9.79503 106.315 11.2571 106.29C11.8464 106.274 12.0344 106.449 11.9356 107.029ZM35.466 108.44C35.4108 111.047 34.3243 113.526 32.4447 115.333C30.565 117.14 28.0456 118.129 25.4384 118.082C24.1377 118.059 22.8545 117.777 21.6632 117.255C20.4718 116.732 19.3959 115.978 18.4977 115.037C17.5996 114.096 16.8969 112.986 16.4305 111.772C15.964 110.557 15.7431 109.262 15.7803 107.962C15.9205 102.547 20.4915 98.2976 26.0373 98.4409C31.2613 98.5779 35.638 103.219 35.466 108.44ZM38.9954 102.349C38.711 102.378 38.4246 102.317 38.177 102.174C37.9294 102.031 37.7332 101.814 37.6161 101.553C32.1755 92.0988 19.0836 92.1339 13.6047 101.614C13.4962 101.86 13.3106 102.066 13.0758 102.198C12.8409 102.331 12.5694 102.384 12.3019 102.349C11.1518 102.287 9.9991 102.287 8.84895 102.349C8.03668 102.404 7.89334 102.104 7.89334 101.356C7.92201 94.1662 7.89334 86.9768 7.89334 79.7906C7.89334 74.5474 7.91565 69.3043 7.87106 64.0612C7.87106 63.1724 8.08129 62.9399 8.97956 62.9494C13.507 63.0004 18.0345 63.0004 22.562 62.9494C23.4922 62.9494 23.661 63.217 23.6514 64.0803C23.6068 68.6481 23.6323 73.2159 23.6323 77.9908C26.6743 76.4746 29.5826 75.0539 32.459 73.5663C32.7706 73.3741 33.1296 73.2722 33.4958 73.2722C33.862 73.2722 34.221 73.3741 34.5327 73.5663C37.3995 75.0634 40.3109 76.4682 43.3466 77.9749V64.7555C43.3466 62.9686 43.3466 62.9686 45.1782 62.9686C49.4689 62.9686 53.7564 62.9908 58.0471 62.9494C58.8753 62.9494 59.111 63.1565 59.1079 64.0006C59.0824 76.4321 59.0824 88.8635 59.1079 101.295C59.1079 102.133 58.8785 102.353 58.0503 102.346C51.7008 102.321 45.3491 102.322 38.9954 102.349ZM39.384 71.6009C37.5779 70.6995 35.9151 69.8936 34.2874 69.0526C34.0625 68.9064 33.8007 68.8268 33.5325 68.8229C33.2642 68.8189 33.0003 68.8908 32.7712 69.0303C31.1434 69.9095 29.4647 70.6931 27.6236 71.6073V63.4464C27.6236 62.9845 27.9421 62.9781 28.2607 62.9781C31.7646 62.9781 35.2398 62.9781 38.7278 62.9781C39.3904 62.9781 39.3935 63.3158 39.3904 63.7904C39.3776 66.3132 39.384 68.8615 39.384 71.6009ZM59.162 109.459C59.2385 110.138 58.9709 110.236 58.3816 110.233C52.2763 110.216 46.1699 110.216 40.0625 110.233C39.4254 110.233 39.2693 110.036 39.3267 109.415C39.4143 108.626 39.4143 107.83 39.3267 107.041C39.2311 106.318 39.556 106.29 40.1039 106.293C43.1969 106.293 46.2899 106.293 49.3829 106.293C52.3548 106.293 55.33 106.318 58.3019 106.274C59.0505 106.274 59.2576 106.449 59.1652 107.194C59.0758 107.947 59.0747 108.707 59.162 109.459ZM72.6903 118.082C67.2433 117.955 62.8793 113.457 63.0068 108.093C63.1342 102.566 67.6638 98.304 73.2637 98.4409C78.4941 98.5747 82.8198 103.136 82.7083 108.427C82.6506 111.033 81.5651 113.51 79.6885 115.318C77.8118 117.127 75.2963 118.12 72.6903 118.082ZM83.6385 99.9253C79.0101 93.4335 69.7916 92.6881 63.784 97.9345C63.5865 98.1065 63.4655 98.3932 62.9972 98.3804C62.9972 90.7801 62.9972 83.2403 62.9972 75.7005C62.9972 75.0411 63.1469 74.8118 63.8445 74.815C69.7215 74.8436 75.5954 74.815 81.4724 74.8405C82.7466 74.8405 83.2913 75.3851 83.6735 76.8855C84.1417 78.733 84.1418 78.733 82.2178 78.733C79.8765 78.733 77.5353 78.733 75.1908 78.733C72.5183 78.7553 70.916 80.3735 70.8842 83.0524C70.8842 84.1641 70.8651 85.2821 70.8842 86.3875C70.932 88.9167 72.5629 90.5508 75.0857 90.5667C78.6183 90.5858 82.1509 90.6144 85.6835 90.5444C86.7251 90.5221 87.1902 90.7451 87.4323 91.844C88.1394 95.0517 88.9772 98.2339 89.8085 101.4C90.006 102.146 89.8691 102.451 89.0759 102.333C89.0357 102.329 88.9951 102.329 88.9549 102.333C86.6741 102.627 85.1611 102.044 83.6385 99.9126V99.9253ZM84.2437 82.7243C84.5367 82.7243 84.9827 82.5363 85.0974 82.8995C85.4515 84.0299 85.746 85.1783 85.9797 86.3397C86.0562 86.741 85.572 86.5913 85.3426 86.5945C83.6799 86.6105 82.0171 86.5945 80.3544 86.5945C78.8094 86.5945 77.2645 86.569 75.7196 86.5945C75.0825 86.5945 74.8372 86.5021 74.8245 85.779C74.7735 82.6924 74.7449 82.6924 77.8315 82.6924C79.9689 82.6956 82.1063 82.6892 84.2437 82.7051V82.7243ZM88.4548 110.246C86.5945 110.246 86.5945 110.246 86.6104 108.363C86.6104 106.318 86.6104 106.318 88.6395 106.318C90.5858 106.318 90.5858 106.318 90.5858 108.306C90.5858 110.227 90.5858 110.227 88.4548 110.227V110.246ZM97.4057 85.177C98.2084 86.2632 98.2848 86.9226 97.4248 87.9802C95.7461 90.0411 94.077 92.0957 92.0096 94.0324C91.3726 91.4841 90.7355 89.0887 90.1494 86.6773C89.2479 83.0651 88.3656 79.4465 87.4609 75.8471C86.6391 72.5789 84.4889 70.8842 81.1188 70.8778C75.4361 70.8778 69.7566 70.8492 64.0802 70.897C63.1597 70.897 62.9526 70.6389 62.9813 69.7661C63.045 67.6638 63.0099 65.5583 63.0004 63.4527C63.0004 60.6337 61.481 59.1111 58.6619 59.1111C44.8395 59.1111 31.0181 59.1185 17.1979 59.1333C16.1021 59.1333 15.8313 58.8977 15.9237 57.7668C16.4875 50.8195 18.472 44.2194 21.8357 38.5048C22.2371 38.6609 22.3996 39.0496 22.6321 39.3617C24.7822 42.2286 26.9355 45.0636 29.057 47.9368C29.4361 48.4496 29.6272 48.542 30.054 47.9654C33.6471 43.1205 37.3549 38.3615 40.8525 33.4496C43.5823 29.6272 44.0665 25.3333 42.4452 20.8865C42.1617 20.1061 42.2923 19.8513 43.0472 19.5264C48.2316 17.2968 53.7811 16.0379 59.42 15.8122C60.2036 15.7772 60.4139 15.8441 60.159 16.7392C57.856 24.881 59.2034 32.3475 64.4529 39.0368C70.5051 46.7486 76.5574 54.4445 82.6988 62.2614L100.734 39.3267C102.905 43.2248 104.465 47.4328 105.36 51.8038C106.074 55.227 106.394 58.7207 106.315 62.2168C106.315 62.9303 106.076 63.2298 105.36 63.4018C95.3384 65.8035 91.277 76.8568 97.4057 85.1579V85.177ZM116.308 82.4567C113.817 85.846 111.265 89.1874 108.774 92.5734C108.325 93.1819 108.137 93.0035 107.774 92.5225C105.289 89.1747 102.748 85.8778 100.301 82.5045C99.0869 80.8393 98.4327 78.8316 98.4327 76.7708C98.4327 74.7099 99.0869 72.7023 100.301 71.0371C101.516 69.3503 103.235 68.092 105.21 67.443C107.185 66.794 109.315 66.7876 111.294 67.4249C115.295 68.6991 118.009 72.3686 118.095 76.2197C118.133 78.7617 117.569 80.727 116.308 82.4376V82.4567Z"/>
</symbol><symbol viewBox="0 0 116 121" id="layer-04" xmlns="http://www.w3.org/2000/svg">
<path d="M109.984 43.352C106.854 40.2019 103.696 37.0724 100.562 33.9306C99.4643 32.8246 99.7428 31.8824 101.25 31.4441C104.613 30.4365 107.976 29.396 111.348 28.4293C112.474 28.1016 113.347 27.5527 113.355 26.2706C113.363 24.9884 112.511 24.4231 111.372 24.0954C108.05 23.1287 104.753 22.0473 101.41 21.1666C100.386 20.8922 100.05 20.3883 99.8453 19.4339C99.2063 16.501 98.4402 13.5926 97.7684 10.6638C97.494 9.43494 96.9779 8.51327 95.6056 8.50098C94.2334 8.48869 93.6967 9.40215 93.4182 10.6228C92.7505 13.5558 91.9476 16.4559 91.37 19.4011C91.1406 20.5686 90.5508 20.9454 89.539 21.2813C88.5272 21.6172 87.9005 21.2813 87.1755 20.5563C82.1084 15.4359 76.9923 10.373 71.9088 5.26903C68.6318 1.99202 64.7198 0.152806 58.5181 0.132324C55.241 0.132324 51.2554 2.00842 47.8883 5.39193C38.5242 14.7997 29.1383 24.191 19.7306 33.566C16.0808 37.2158 12.3573 40.7877 8.8427 44.5604C5.32811 48.333 4.10338 52.7775 4.79974 57.8363C5.36912 61.9777 7.43361 65.271 10.3993 68.077C10.8089 68.4579 11.4479 68.7119 11.1898 69.5557C9.46942 75.1881 8.38391 81.0253 5.35268 86.2234C3.83297 88.8205 2.37069 91.442 0.732186 93.9653C-0.320553 95.6038 -0.263277 96.2552 1.06801 97.5824C8.50409 105.029 15.9429 112.468 23.3844 119.899C24.7239 121.238 25.4326 121.341 27.0056 120.288C33.834 115.741 40.9902 111.686 47.323 106.393C47.9047 105.91 48.2324 105.902 48.8427 106.393C56.216 112.632 65.2277 112.276 72.0439 105.476C84.6986 92.8485 97.3397 80.2101 109.967 67.5609C117.123 60.4129 117.123 50.5286 109.984 43.352ZM91.706 24.9843C93.8852 24.6075 94.983 23.3704 95.2288 21.2363C95.2084 21.0324 95.2393 20.8267 95.3187 20.6378C95.3981 20.4489 95.5235 20.2829 95.6834 20.1548C95.8913 20.8283 96.0649 21.5119 96.2036 22.203C96.4085 23.5916 97.2114 24.3371 98.5345 24.6853C100.173 25.0949 101.75 25.6111 103.356 26.078L103.393 26.3975C102.053 26.8072 100.73 27.2864 99.3659 27.5568C97.3629 27.9664 96.1995 29.0069 95.9988 31.0755C95.9352 31.4643 95.8421 31.8477 95.7203 32.2224C95.5647 32.1692 95.4172 32.1446 95.4131 32.1159C95.3025 29.0355 93.4674 27.6756 90.641 27.2004C89.6393 27.0223 88.6853 26.6387 87.8391 26.0739C89.1062 25.6372 90.3973 25.2734 91.706 24.9843ZM28.7506 114.18C27.7019 114.799 26.6082 116.02 25.6456 115.921C24.6829 115.823 23.835 114.43 22.9748 113.57C17.1909 107.797 11.4111 102.021 5.6354 96.2429C5.16842 95.78 4.66451 95.4482 5.25027 94.6044C10.6655 86.9853 13.2749 78.2193 15.6138 69.3182C17.6333 61.6377 19.8862 54.0186 22.0449 46.3791C22.6102 44.3801 24.1873 43.2619 25.9815 43.5117C27.7757 43.7616 29.1315 45.2772 29.111 47.4564C28.4965 50.1272 27.8043 53.1543 27.1039 56.1815C26.4539 59.0079 25.7958 61.8356 25.1294 64.6648C24.8427 65.8937 24.7731 67.0447 26.0962 67.7124C27.3251 68.3391 28.2099 67.6592 29.0537 66.8153C38.6881 57.1673 48.3266 47.522 57.9692 37.8794C58.9523 36.8922 59.9804 36.1507 61.4755 36.5522C61.9625 36.6655 62.4135 36.8985 62.7877 37.23C63.1619 37.5616 63.4476 37.9811 63.6188 38.4509C63.79 38.9206 63.8414 39.4256 63.7683 39.9202C63.6952 40.4147 63.4999 40.8833 63.2001 41.2834C62.8837 41.6833 62.5358 42.0572 62.1597 42.4016C55.3326 49.2287 48.5055 56.0558 41.6784 62.8829C41.3417 63.195 41.023 63.5259 40.7239 63.8742C39.9374 64.8614 39.9457 65.8773 40.8591 66.7416C41.7726 67.6059 42.6943 67.5404 43.6282 66.8113C43.9778 66.5136 44.3101 66.1963 44.6236 65.8609L71.0567 39.4277C71.4389 39.0145 71.8496 38.6285 72.2856 38.2726C72.8692 37.8021 73.6088 37.569 74.3568 37.6199C75.1047 37.6708 75.8059 38.0019 76.3204 38.5471C76.8529 39.0715 77.1721 39.7747 77.2159 40.5208C77.2598 41.2669 77.0254 42.0028 76.558 42.586C76.2356 42.9808 75.8866 43.353 75.5134 43.7001C66.6273 52.5836 57.7439 61.4684 48.8632 70.3545C48.4495 70.7305 48.0847 71.1572 47.7777 71.6244C47.2329 72.546 47.4705 73.4103 48.2242 74.1067C48.5261 74.4293 48.9342 74.6323 49.3737 74.6782C49.8131 74.7241 50.2543 74.6099 50.6164 74.3565C51.073 74.0343 51.4945 73.665 51.8739 73.2547C58.2696 66.8645 64.6638 60.4743 71.0567 54.0842C71.4729 53.6352 71.9281 53.224 72.4167 52.8553C73.0265 52.4202 73.7758 52.2263 74.5201 52.311C75.2644 52.3957 75.951 52.7531 76.4474 53.3141C76.9307 53.8467 77.2181 54.5281 77.262 55.246C77.306 55.9639 77.1039 56.6753 76.6891 57.2629C76.3422 57.7003 75.9629 58.1111 75.5544 58.4917C68.8038 65.2506 62.0518 72.0053 55.2984 78.7559C54.9178 79.0967 54.5669 79.4695 54.2498 79.8701C53.9361 80.2511 53.7775 80.7363 53.8056 81.229C53.8336 81.7217 54.0463 82.1857 54.4013 82.5286C54.7144 82.9117 55.164 83.1583 55.6554 83.2164C56.1467 83.2745 56.6415 83.1395 57.0353 82.8399C57.4468 82.5358 57.8269 82.1914 58.1699 81.8118C63.0117 76.9782 67.8507 72.1405 72.687 67.2987C73.1423 66.7473 73.7165 66.3062 74.3666 66.0084C74.9591 65.7521 75.6207 65.7033 76.2444 65.8698C76.8681 66.0363 77.4173 66.4085 77.8033 66.9259C78.2144 67.3917 78.4573 67.9819 78.4929 68.6021C78.5286 69.2224 78.355 69.8365 77.9999 70.3463C77.6459 70.8506 77.2334 71.3112 76.771 71.7186C70.5283 77.9695 64.1382 84.0811 58.0675 90.4958C49.4442 99.7157 39.5768 107.687 28.7506 114.18ZM107.984 63.5875C106.829 64.8819 105.56 66.0739 104.335 67.3028C92.5239 79.1109 80.713 90.9177 68.9021 102.723C64.2201 107.397 57.4695 107.917 52.5171 104.104C51.5708 103.374 51.3373 103.01 52.3573 102.006C61.8114 92.6805 71.2179 83.3083 80.5765 73.8896C84.2631 70.1661 83.157 65.0539 78.0613 62.0104C80.1913 60.1057 81.7807 57.9142 81.4817 54.8952C81.1827 51.8763 79.536 49.8241 76.4556 48.4682C77.5124 47.5056 78.5037 46.7191 79.3517 45.8138C82.1658 42.8399 82.1371 38.4406 79.3517 35.6223C78.0004 34.2739 76.1747 33.5084 74.2658 33.49C72.3568 33.4716 70.5167 34.2018 69.1397 35.524C68.6323 36.062 68.1589 36.6311 67.7223 37.2281C64.8304 31.5998 59.28 30.7191 55.069 34.9219C47.48 42.4999 39.8992 50.0862 32.3266 57.6807C31.9685 58.1112 31.6542 58.5764 31.3885 59.0693L30.8847 58.6965C31.6343 55.4195 32.3757 52.1057 33.1376 48.8123C33.8381 45.777 32.9205 43.2414 30.6553 41.2342C28.3901 39.227 25.7152 38.842 22.9175 39.8046C20.3983 40.673 18.7925 42.4958 18.0716 45.1052C16.3184 51.4257 14.5325 57.738 12.6891 64.292C10.514 62.3617 9.15976 59.6723 8.90421 56.7754C8.49458 52.8266 9.7808 49.4513 12.5908 46.6454C25.4531 33.7913 38.3126 20.9372 51.1694 8.08315C56.175 3.09801 63.4581 2.94645 68.4597 7.78413C73.4612 12.6218 78.2334 17.5128 83.1079 22.3873C83.268 22.579 83.4184 22.7786 83.5585 22.9853L79.6957 24.1323C78.6225 24.4518 77.8606 25.0499 77.8647 26.2665C77.8688 27.483 78.6512 28.0729 79.7162 28.3883C83.0874 29.3837 86.4463 30.4119 89.8339 31.3458C90.2267 31.4128 90.5873 31.6049 90.8619 31.8936C91.1365 32.1822 91.3105 32.5519 91.3578 32.9475C92.0091 35.9336 92.7833 38.8911 93.4551 41.8732C93.7295 43.1021 94.2743 44.0156 95.6302 44.0156C96.9861 44.0156 97.5432 43.0816 97.8053 41.865C98.0675 40.6484 98.3992 39.4359 98.6696 38.3586C101.947 41.5496 105.428 44.503 108.427 47.907C112.314 52.3269 111.982 59.1103 107.984 63.5875Z"/>
</symbol><symbol viewBox="0 0 119 122" id="layer-05" xmlns="http://www.w3.org/2000/svg">
<path d="M102.09 82.4422C101.579 79.1974 99.9228 76.243 97.421 74.1144C94.9192 71.9859 91.7377 70.8241 88.4529 70.8397C81.8366 70.8397 75.9631 75.9277 74.977 82.5145C74.5662 85.167 74.8258 87.8326 74.7798 90.4883C74.7798 91.2081 74.6253 91.4053 73.8956 91.2114C69.3776 90.0479 64.7659 89.2846 60.114 88.9304C52.6398 88.284 45.1176 88.446 37.6782 89.4135C34.5499 89.789 31.4532 90.392 28.4127 91.218C27.7093 91.4185 27.4924 91.218 27.5318 90.4883C27.591 89.3445 27.5318 88.1875 27.5318 87.047H27.5088C27.5088 85.9821 27.5515 84.9139 27.5088 83.8522C27.1407 75.392 18.8184 69.1832 10.6047 71.221C7.55137 71.9486 4.83715 73.695 2.90961 76.1722C0.982067 78.6495 -0.043707 81.7097 0.00142832 84.8481C0.0517971 87.9646 1.1614 90.9711 3.14766 93.3732C5.13391 95.7752 7.87853 97.4297 10.9301 98.0644C11.6828 98.2288 11.8241 98.495 11.811 99.1688C11.7781 101.424 11.7913 103.678 11.811 105.933C11.8274 110.314 14.5817 113.493 18.9072 114.071C19.5646 114.157 19.7059 114.331 19.6895 114.939C19.6533 116.536 19.6632 118.134 19.6895 119.734C19.6895 121.253 20.4323 121.976 21.964 121.992C23.683 121.992 25.4052 121.963 27.1242 121.992C28.3009 122.022 29.0372 121.522 29.5335 120.477C30.4308 118.597 31.407 116.753 32.3075 114.89C32.3896 114.644 32.5525 114.433 32.7698 114.291C32.9871 114.15 33.2458 114.086 33.504 114.111C45.2642 114.13 57.0244 114.13 68.7846 114.111C69.5011 114.111 69.7707 114.406 70.0599 114.965C70.9835 116.878 71.9498 118.771 72.8833 120.678C73.0613 121.092 73.3637 121.442 73.7488 121.677C74.1338 121.913 74.5825 122.023 75.0329 121.992C76.834 121.973 78.6484 121.992 80.4397 121.992C81.8793 121.973 82.6155 121.23 82.6386 119.78C82.6616 118.222 82.6648 116.664 82.6386 115.11C82.6386 114.469 82.6681 114.16 83.4964 114.058C87.674 113.539 90.4809 110.308 90.5137 106.101C90.5335 103.8 90.5466 101.499 90.5137 99.1984C90.5137 98.4523 90.7011 98.2123 91.4768 98.0348C94.9068 97.2907 97.9203 95.2581 99.8952 92.3566C101.87 89.4551 102.656 85.9061 102.09 82.4422ZM27.19 116.372C26.7463 117.844 25.8095 118.285 24.3568 118.084C23.8243 118.012 23.6073 117.966 23.581 117.348C23.4496 114.124 23.4266 114.127 26.6378 114.127H28.2812C27.8473 114.988 27.4102 115.646 27.19 116.372ZM78.6944 114.794C78.6516 115.238 78.6944 115.692 78.6944 116.142C78.6944 118.219 78.6944 118.203 76.5645 118.071C76.3856 118.088 76.2061 118.046 76.0532 117.952C75.9002 117.857 75.7821 117.716 75.7165 117.549C75.3649 116.77 74.9507 116.02 74.5662 115.248C74.4084 114.919 74.2572 114.591 74.0304 114.121C75.4799 114.121 76.7453 114.144 78.0107 114.121C78.5268 114.101 78.7371 114.242 78.6944 114.811V114.794ZM88.9032 94.4391C87.1974 94.5311 86.563 95.1786 86.5597 96.8877C86.5597 99.8459 86.5597 102.804 86.5597 105.742C86.5597 108.681 85.0051 110.186 82.0601 110.189H20.3304C17.2408 110.189 15.7289 108.681 15.7289 105.588C15.7289 102.719 15.7289 99.8492 15.7289 96.9798C15.7289 95.1622 15.1241 94.5245 13.359 94.4325C10.7719 94.3188 8.33343 93.1919 6.57024 91.2952C4.80706 89.3986 3.86077 86.8845 3.93578 84.2959C4.0541 79.037 8.50771 74.7642 13.8554 74.7642C16.424 74.7872 18.8815 75.8153 20.7013 77.6283C22.5211 79.4414 23.5584 81.895 23.5909 84.4636C23.6304 86.9221 23.5909 89.3938 23.6139 91.8425C23.6498 92.0772 23.5955 92.3168 23.462 92.5131C23.3284 92.7094 23.1256 92.8479 22.8941 92.9008C21.7437 93.3183 20.6295 93.8343 19.4857 94.2714C18.8579 94.5147 18.6739 94.7875 19.0979 95.4152C19.6435 96.2238 19.9064 97.4728 20.6394 97.8409C21.3723 98.209 22.3781 97.2657 23.2688 96.9272C29.0536 94.7513 35.0586 93.5746 41.1852 92.9567C47.7945 92.2862 54.4546 92.2862 61.0639 92.9567C67.8479 93.6502 74.4971 94.9288 80.7848 97.7094C81.5145 98.0381 81.8793 97.9855 82.1587 97.246C82.2931 96.9478 82.4514 96.6609 82.632 96.3881C83.618 94.61 83.618 94.61 81.7084 93.7784C81.6328 93.7455 81.5539 93.7192 81.4783 93.6897C80.5744 93.3215 79.2597 93.1966 78.8686 92.5261C78.3986 91.7274 78.6714 90.462 78.701 89.4037C78.7568 87.2344 78.4873 85.0585 78.8916 82.9023C79.8447 77.8374 84.4561 74.2975 89.4488 74.7905C91.9432 75.0314 94.2523 76.2131 95.9068 78.0953C97.5613 79.9775 98.437 82.419 98.3561 84.9237C98.2695 87.4085 97.2474 89.7688 95.4946 91.532C93.7417 93.2953 91.3874 94.3312 88.9032 94.4325V94.4391Z"/>
<path d="M118.034 8.45916C118.034 3.29886 114.748 0.0120517 109.597 0.00876484C99.1844 0.00876484 88.7762 0.00876484 78.3723 0.00876484C70.6253 0.00876484 62.8783 -0.0109561 55.1345 0.00876484C53.1691 -0.000597386 51.271 0.724106 49.8119 2.04095C48.3528 3.35779 47.4378 5.17191 47.2462 7.12801C46.9931 9.83963 46.9964 9.75746 49.6751 9.8725C50.9044 9.9218 51.2364 9.60956 51.1903 8.36385C51.0917 5.53062 52.7351 3.93979 55.5487 3.93979C63.5422 3.93979 71.5325 3.95952 79.526 3.91021C80.5449 3.91021 80.6895 4.2389 80.6863 5.1362C80.66 17.6261 80.6534 30.127 80.6665 42.6388C80.6665 45.2682 80.6665 45.1828 83.3387 45.2912C84.4989 45.3372 84.6271 44.933 84.6239 43.9305C84.591 31.0199 84.6239 18.1093 84.5811 5.19865C84.5811 4.22904 84.729 3.90035 85.8038 3.90692C93.7546 3.9628 101.705 3.93651 109.656 3.93979C112.562 3.93979 114.11 5.50103 114.11 8.42629C114.11 40.8562 114.11 73.2785 114.11 105.693C114.11 108.628 112.572 110.18 109.656 110.183H95.1482C92.4662 110.183 92.5023 110.183 92.453 112.921C92.453 113.818 92.5845 114.262 93.6133 114.14C94.4646 114.038 95.3356 114.166 96.1934 114.104C96.4903 114.052 96.7962 114.108 97.055 114.262C97.3139 114.417 97.5086 114.659 97.6035 114.945C98.5008 116.871 99.4868 118.755 100.42 120.661C100.595 121.079 100.895 121.433 101.28 121.672C101.665 121.911 102.114 122.024 102.567 121.996C104.328 121.973 106.093 121.996 107.855 121.996C109.449 121.979 110.156 121.263 110.176 119.655C110.195 118.048 110.176 116.457 110.176 114.86C110.176 114.42 110.176 114.176 110.784 114.084C115.52 113.361 118.051 110.383 118.051 105.604C118.051 89.4134 118.051 73.2237 118.051 57.035C118.051 40.8464 118.045 24.6544 118.034 8.45916ZM106.238 114.893C106.202 115.3 106.238 115.711 106.238 116.119C106.238 118.203 106.238 118.183 104.131 118.091C103.932 118.101 103.736 118.047 103.57 117.936C103.405 117.826 103.28 117.664 103.214 117.476C102.714 116.411 102.169 115.369 101.571 114.137C103.017 114.137 104.282 114.173 105.548 114.137C106.162 114.084 106.287 114.347 106.238 114.893Z"/>
<path d="M14.4503 41.3274C19.0519 41.3274 23.6271 41.3274 28.2155 41.3274C29.2673 41.3274 30.6214 40.8771 31.292 41.5081C31.9066 42.0899 31.4662 43.4474 31.4497 44.4663C31.4497 45.1236 31.6469 45.3274 32.278 45.2683C33.2871 45.1729 34.6215 45.689 35.2164 45.0645C35.716 44.5353 35.4432 43.2041 35.384 42.2378C35.3347 41.4523 35.601 41.2945 36.3405 41.3043C39.085 41.3504 41.8295 41.3241 44.5575 41.3241H52.3013C54.5823 41.3241 55.2035 40.6108 55.0063 38.3134C54.3731 30.929 53.7453 23.5424 53.123 16.1536C52.9718 14.3656 52.367 13.7806 50.5626 13.7773C46.5494 13.7773 42.5329 13.7773 38.5164 13.7773C37.5073 13.7773 36.1728 14.2177 35.5779 13.5932C35.0783 13.0673 35.3512 11.7362 35.4103 10.7666C35.4564 9.98429 35.2 9.76079 34.4539 9.84296C33.4908 9.94814 32.209 9.44196 31.637 10.0435C31.1572 10.5496 31.407 11.8282 31.476 12.7518C31.545 13.6754 31.2361 13.8167 30.3947 13.8069C25.6419 13.7641 20.8892 13.7838 16.1365 13.7904C14.5982 13.7904 13.862 14.4116 13.7436 15.8151C13.0863 23.4033 12.4454 30.9936 11.8209 38.5862C11.6861 40.5812 12.3928 41.3241 14.4503 41.3274ZM15.9688 36.2755C16.5013 30.322 16.9954 24.3641 17.4512 18.4018C17.5136 17.6261 17.9442 17.7149 18.4372 17.7149H26.4242C33.6749 17.7149 40.9256 17.7149 48.1763 17.6919C49.1065 17.6919 49.3826 17.9055 49.4549 18.8751C49.8778 24.5942 50.3577 30.3067 50.8945 36.0126C50.9931 37.0972 50.7762 37.4358 49.6028 37.4193C44.1993 37.347 38.7892 37.3865 33.3824 37.3865C27.9756 37.3865 22.4866 37.3635 17.0403 37.4128C16.1003 37.4226 15.8834 37.2024 15.959 36.2755H15.9688Z"/>
<path d="M11.9753 66.7245C12.567 67.3162 13.8422 66.81 14.8086 66.9152C15.5777 67.0039 15.765 66.7344 15.7519 65.9784C15.7026 63.109 15.7223 60.2397 15.7519 57.3735C15.7519 54.7901 17.3953 53.1368 19.959 53.1368C40.7755 53.1368 61.592 53.1368 82.4085 53.1368C84.9065 53.1368 86.5466 54.7803 86.5663 57.3012C86.5663 59.556 86.5663 61.8075 86.5663 64.0622C86.5663 66.9382 86.5663 66.9086 89.5047 66.925C90.287 66.925 90.5401 66.7508 90.5236 65.939C90.4678 63.1945 90.5039 60.4467 90.5007 57.7022C90.5007 52.4696 87.2138 49.2091 81.9845 49.2058H51.1279C40.6758 49.2058 30.2259 49.2058 19.7782 49.2058C15.2654 49.2058 11.857 52.634 11.811 57.1303C11.7869 59.3851 11.7869 61.6398 11.811 63.8946C11.8143 64.8511 11.387 66.1329 11.9753 66.7245Z"/>
<path d="M43.2756 62.9348C43.2756 61.0022 43.2756 61.0022 41.3956 61.0022C39.3413 61.0022 39.3413 61.0022 39.3413 63.0039C39.3413 64.9365 39.3413 64.9365 41.2181 64.9365C43.2756 64.9365 43.2756 64.9365 43.2756 62.9348Z"/>
<path d="M60.8667 61.0022C59.0129 61.0022 59.0129 61.0022 59.0129 62.8362C59.0129 64.9365 59.0129 64.9365 61.0935 64.9365C62.9472 64.9365 62.9472 64.9365 62.9472 63.1025C62.9604 61.0022 62.9604 61.0022 60.8667 61.0022Z"/>
<path d="M29.5039 72.7098C29.5039 74.7739 29.5039 74.7739 31.4957 74.7739C33.4875 74.7739 33.4383 74.7739 33.4383 72.7821C33.4383 70.8396 33.4382 70.8396 31.4431 70.8396C29.5039 70.8396 29.5039 70.8396 29.5039 72.7098Z"/>
<path d="M49.1755 72.9201C49.1755 74.7739 49.1755 74.7739 51.0096 74.7739C53.1098 74.7739 53.1098 74.7739 53.1098 72.6934C53.1098 70.8396 53.1098 70.8396 51.2758 70.8396C49.1755 70.8396 49.1755 70.8396 49.1755 72.9201Z"/>
<path d="M68.8503 72.6671C68.8503 74.7739 68.8503 74.7739 70.921 74.7739C72.7846 74.7739 72.7847 74.7739 72.7847 72.9497C72.7847 70.8396 72.7846 70.8396 70.7139 70.8396C68.8503 70.8396 68.8503 70.8396 68.8503 72.6671Z"/>
<path d="M41.3035 84.6114C43.2756 84.6114 43.2756 84.6114 43.2756 82.6393C43.2756 80.6672 43.2756 80.6672 41.3035 80.6672C39.3314 80.6672 39.3314 80.6672 39.3314 82.6393C39.3314 84.6114 39.3413 84.6114 41.3035 84.6114Z"/>
<path d="M61.0836 80.6771C59.013 80.6771 59.0129 80.6771 59.0129 82.7873C59.0129 84.6114 59.013 84.6114 60.8766 84.6114C62.9473 84.6114 62.9472 84.6114 62.9472 82.5046C62.9604 80.6771 62.9604 80.6771 61.0836 80.6771Z"/>
<path d="M13.7534 78.7115C12.9743 78.7154 12.2035 78.8732 11.4855 79.1757C10.7674 79.4783 10.1162 79.9197 9.56927 80.4746C9.02229 81.0295 8.59028 81.687 8.29811 82.4093C8.00594 83.1316 7.85935 83.9046 7.86672 84.6837C7.89088 86.2368 8.52483 87.7181 9.63174 88.8078C10.7386 89.8975 12.2297 90.5081 13.783 90.5079C14.5622 90.5041 15.3329 90.3463 16.0509 90.0438C16.769 89.7412 17.4202 89.2998 17.9671 88.7449C18.5141 88.19 18.9461 87.5325 19.2382 86.8102C19.5304 86.0879 19.6771 85.3149 19.6697 84.5358C19.6455 82.9827 19.0115 81.5014 17.9046 80.4117C16.7977 79.322 15.3067 78.7114 13.7534 78.7115ZM13.8356 86.5769C13.5711 86.5857 13.3076 86.5412 13.0607 86.4461C12.8138 86.3509 12.5886 86.2071 12.3984 86.023C12.2083 85.839 12.0571 85.6186 11.9539 85.375C11.8507 85.1313 11.7976 84.8694 11.7977 84.6048C11.8037 84.0892 12.0115 83.5964 12.3764 83.2321C12.7414 82.8677 13.2345 82.6608 13.7501 82.6557C14.2647 82.6556 14.759 82.8566 15.1274 83.2158C15.4959 83.5751 15.7094 84.0641 15.7222 84.5785C15.7295 85.0916 15.5366 85.5873 15.1843 85.9605C14.832 86.3336 14.3482 86.5547 13.8356 86.5769Z"/>
<path d="M88.5581 78.7115C87.0082 78.7113 85.52 79.3192 84.4137 80.4047C83.3073 81.4901 82.6711 82.9664 82.6418 84.5161C82.6319 85.2949 82.7758 86.0681 83.0653 86.7912C83.3549 87.5143 83.7844 88.1731 84.3292 88.7299C84.874 89.2866 85.5234 89.7302 86.24 90.0353C86.9567 90.3405 87.7266 90.5011 88.5055 90.5079C90.0746 90.5079 91.5794 89.8846 92.6889 88.7751C93.7985 87.6656 94.4218 86.1608 94.4218 84.5917C94.4123 83.0379 93.7921 81.5502 92.6949 80.45C91.5978 79.3498 90.1118 78.7253 88.5581 78.7115ZM88.5811 86.5769C88.3155 86.584 88.0512 86.5374 87.8041 86.4398C87.557 86.3422 87.3321 86.1957 87.143 86.0091C86.9539 85.8224 86.8045 85.5995 86.7037 85.3537C86.6029 85.1079 86.5528 84.8442 86.5565 84.5785C86.5659 84.0618 86.7779 83.5694 87.1467 83.2073C87.5155 82.8453 88.0117 82.6425 88.5285 82.6426C89.0454 82.6425 89.5416 82.8453 89.9104 83.2073C90.2792 83.5694 90.4912 84.0618 90.5006 84.5785C90.5078 85.0943 90.3126 85.5924 89.9569 85.966C89.6011 86.3396 89.1131 86.5589 88.5976 86.5769H88.5811Z"/>
</symbol><symbol viewBox="0 0 123 122" id="layer-06" xmlns="http://www.w3.org/2000/svg">
<path d="M0.413257 43.1178C2.37082 52.3802 10.2268 59.0571 19.6942 59.2493C26.3156 59.3881 32.9454 59.3881 39.5838 59.2493C44.7524 59.1684 49.6882 57.0868 53.3538 53.4421C57.0194 49.7974 59.1292 44.8736 59.2397 39.7056C59.4191 32.9583 59.4191 26.2088 59.2397 19.4571C59.009 10.5055 52.8319 2.96681 44.1814 0.660017C43.2844 0.419726 42.32 0.464562 41.4806 0H17.5092C16.5768 0.560678 15.4747 0.503007 14.4719 0.839414C6.90115 3.40251 2.19147 8.52873 0.394093 16.3174C0.304384 16.7082 0.454982 17.2112 0.00964355 17.4996V41.9484C0.451778 42.2239 0.33316 42.7397 0.413257 43.1178ZM4.79622 20.5529C4.81223 11.582 11.5788 4.81542 20.5496 4.7994C26.6178 4.7994 32.687 4.7994 38.7573 4.7994C47.6513 4.81862 54.3569 11.4154 54.4947 20.3094C54.5428 23.4235 54.4947 26.5377 54.4947 29.6519C54.4947 32.766 54.5235 35.8001 54.4947 38.8758C54.4146 46.7477 49.3397 52.8191 41.6119 54.2801C40.6677 54.4367 39.711 54.5054 38.7541 54.4851C32.7244 54.5043 26.6958 54.5043 20.6682 54.4851C11.5116 54.4851 4.80262 47.757 4.79301 38.6291C4.78874 32.6123 4.78981 26.5868 4.79622 20.5529Z"/>
<path d="M39.4589 62.677C32.9102 62.5574 26.3593 62.5574 19.8063 62.677C10.294 62.8404 2.38682 69.5077 0.413234 78.8213C0.329933 79.2122 0.448543 79.7152 0 79.9875V104.44C0.438931 104.68 0.278693 105.151 0.355586 105.503C2.47655 115.378 10.5375 121.923 20.6393 121.936C26.7908 121.936 32.9423 121.971 39.0905 121.936C50.0702 121.865 58.9545 113.324 59.2428 102.354C59.4223 95.6513 59.4223 88.9424 59.2428 82.227C59.1259 77.0384 56.9968 72.0984 53.3052 68.4504C49.6136 64.8025 44.6486 62.7322 39.4589 62.677ZM54.5011 101.271C54.453 110.511 47.773 117.14 38.5138 117.146C32.5332 117.146 26.5441 117.146 20.5464 117.146C11.5756 117.13 4.81221 110.354 4.79619 101.389C4.79619 95.3213 4.79619 89.2531 4.79619 83.185C4.81221 74.2141 11.5499 67.486 20.5528 67.454C26.621 67.4412 32.6891 67.4412 38.7573 67.454C47.7281 67.47 54.3954 74.0796 54.4979 83.0697C54.5331 86.1422 54.4979 89.2179 54.4979 92.2904C54.5043 95.2828 54.5171 98.2784 54.5011 101.271Z"/>
<path d="M83.1501 59.2525C89.7715 59.3978 96.4014 59.3978 103.04 59.2525C108.288 59.1373 113.284 56.9767 116.962 53.2314C120.64 49.486 122.71 44.4521 122.731 39.2027C122.778 32.8526 122.778 26.5014 122.731 20.1492C122.706 15.6841 121.207 11.3523 118.465 7.82768C115.724 4.30303 111.895 1.78317 107.573 0.660062C106.718 0.432587 105.795 0.461422 105.01 0.0192871H81.0388C80.9491 0.339675 80.6607 0.23392 80.4493 0.272367C70.6134 2.02489 63.6706 9.98974 63.4687 19.9538C63.3438 26.541 63.3118 33.1377 63.488 39.7217C63.6065 44.887 65.7201 49.8058 69.3857 53.4469C73.0513 57.088 77.9842 59.1686 83.1501 59.2525ZM68.2393 20.633C68.2842 11.4763 74.9835 4.82188 84.153 4.81227C90.1335 4.81227 96.1226 4.81227 102.12 4.81227C111.171 4.81227 117.928 11.566 117.944 20.617C117.944 26.6851 117.944 32.7533 117.944 38.8214C117.925 47.7282 111.181 54.4756 102.245 54.5204C96.0959 54.5396 89.9466 54.5396 83.7973 54.5204C75.0572 54.482 68.3515 47.8371 68.2329 39.0937C68.1881 35.8899 68.2329 32.7052 68.2329 29.5109C68.2361 26.5281 68.2233 23.5742 68.2393 20.633Z"/>
<path d="M122.699 82.0252C122.484 71.8369 113.965 63.0872 103.761 62.7443C96.5775 62.5008 89.3752 62.5105 82.1953 62.7443C72.4267 63.0647 63.9716 71.6255 63.5295 81.3877C63.3661 84.976 63.5039 88.5772 63.5039 92.1719C63.5039 95.7667 63.3693 99.3646 63.5295 102.953C63.9812 113.141 72.651 121.676 82.8361 121.891C89.671 122.036 96.506 122.036 103.341 121.891C113.696 121.676 122.513 112.859 122.728 102.504C122.849 95.6823 122.84 88.8559 122.699 82.0252ZM117.944 101.386C117.925 110.357 111.155 117.13 102.191 117.143C96.1226 117.143 90.0533 117.143 83.9831 117.143C75.0442 117.124 68.3258 110.453 68.2425 101.511C68.2136 98.4387 68.2425 95.3629 68.2425 92.2872C68.2425 89.2115 68.2264 86.2191 68.2425 83.185C68.3033 74.0796 74.9706 67.4572 84.1016 67.4476C90.1313 67.4476 96.1599 67.4476 102.188 67.4476C111.184 67.4636 117.928 74.195 117.947 83.1786C117.956 89.2489 117.955 95.3181 117.944 101.386Z"/>
</symbol></svg>